# 3ds Max Wavefront OBJ Exporter v0.97b - (c)2007 guruware
# File Created: 19.04.2016 04:17:53

mtllib circuit.mtl

#
# object Box003
#

v  50.0000 30.0000 20.0000
v  50.0000 0.0000 20.0000
v  50.0000 0.0000 -20.0000
v  50.0000 30.0000 -20.0000
v  50.0000 30.0000 -50.0000
v  50.0000 170.0000 -50.0000
v  50.0000 170.0000 -20.0000
v  50.0000 170.0000 20.0000
v  50.0000 200.0000 -20.0000
v  50.0000 200.0000 20.0000
v  50.0000 30.0000 50.0000
v  50.0000 170.0000 50.0000
v  20.0000 180.0000 -50.0000
v  -20.0000 200.0000 -50.0000
v  20.0000 200.0000 -50.0000
v  -20.0000 170.0000 -50.0000
v  20.0000 170.0000 -50.0000
v  20.0000 30.0000 -50.0000
v  20.0000 0.0000 -50.0000
v  -20.0000 0.0000 -50.0000
v  -20.0000 30.0000 -50.0000
v  -50.0000 30.0000 -50.0000
v  -50.0000 170.0000 -50.0000
v  -30.0000 170.0000 -50.0000
v  -50.0000 30.0000 50.0000
v  -20.0000 170.0000 50.0000
v  -50.0000 170.0000 50.0000
v  -20.0000 30.0000 50.0000
v  -20.0000 0.0000 50.0000
v  20.0000 0.0000 50.0000
v  20.0000 30.0000 50.0000
v  20.0000 170.0000 50.0000
v  20.0000 200.0000 50.0000
v  -20.0000 200.0000 50.0000
v  -20.0000 180.0000 50.0000
v  -50.0000 180.0000 -20.0000
v  -50.0000 200.0000 20.0000
v  -50.0000 200.0000 -20.0000
v  -50.0000 170.0000 20.0000
v  -50.0000 170.0000 -20.0000
v  -50.0000 30.0000 20.0000
v  -50.0000 30.0000 -20.0000
v  -50.0000 0.0000 20.0000
v  -50.0000 0.0000 -20.0000
v  -50.0000 170.0000 -30.0000
# 45 vertices

vn 1.0000 0.0000 -0.0000
vn 0.0000 0.0000 -1.0000
vn 0.0000 0.0000 1.0000
vn -1.0000 0.0000 -0.0000
# 4 vertex normals

vt 0.5644 0.1463 1.0257
vt 0.5644 0.0000 1.0257
vt 0.6856 0.0000 1.0257
vt 0.6856 0.1463 1.0257
vt 0.7500 0.1463 1.3469
vt 0.7500 0.8293 1.3469
vt 0.6856 0.8293 1.0257
vt 0.5644 0.8293 1.0257
vt 0.6856 0.9756 1.0257
vt 0.5644 0.9756 1.0257
vt 0.5000 0.1463 1.3469
vt 0.5000 0.8293 1.3469
vt 0.8144 0.8780 1.0257
vt 0.9356 0.9756 1.0257
vt 0.8144 0.9756 1.0257
vt 0.9356 0.8293 1.0257
vt 0.8144 0.8293 1.0257
vt 0.8144 0.1463 1.0257
vt 0.8144 0.0000 1.0257
vt 0.9356 0.0000 1.0257
vt 0.9356 0.1463 1.0257
vt 1.0000 0.1463 1.3469
vt 1.0000 0.8293 1.3469
vt 0.9610 0.8293 1.1107
vt 0.2500 0.1463 1.3469
vt 0.3144 0.8293 1.0257
vt 0.2500 0.8293 1.3469
vt 0.3144 0.1463 1.0257
vt 0.3144 0.0000 1.0257
vt 0.4356 0.0000 1.0257
vt 0.4356 0.1463 1.0257
vt 0.4356 0.8293 1.0257
vt 0.4356 0.9756 1.0257
vt 0.3144 0.9756 1.0257
vt 0.3144 0.8780 1.0257
vt 0.0644 0.8780 1.0257
vt 0.1856 0.9756 1.0257
vt 0.0644 0.9756 1.0257
vt 0.1856 0.8293 1.0257
vt 0.0644 0.8293 1.0257
vt 0.1856 0.1463 1.0257
vt 0.0644 0.1463 1.0257
vt 0.1856 0.0000 1.0257
vt 0.0644 0.0000 1.0257
vt 1.0390 0.8293 1.1107
vt 0.0390 0.8293 1.1107
vt -0.0000 0.1463 1.3469
# 47 texture coords

g Box003
usemtl 03___Default1
s 16
f 1/1/1 2/2/1 3/3/1 4/4/1 
f 4/4/1 5/5/1 6/6/1 7/7/1 
f 1/1/1 4/4/1 7/7/1 8/8/1 
f 7/7/1 9/9/1 10/10/1 8/8/1 
f 11/11/1 1/1/1 8/8/1 12/12/1 
s 32
f 13/13/2 14/14/2 15/15/2 
f 13/13/2 16/16/2 14/14/2 
f 17/17/2 16/16/2 13/13/2 
f 5/5/2 17/17/2 6/6/2 
f 18/18/2 19/19/2 20/20/2 21/21/2 
f 22/22/2 23/23/2 24/24/2 21/21/2 
f 21/21/2 24/24/2 16/16/2 17/17/2 
f 18/18/2 21/21/2 17/17/2 5/5/2 
s 8
f 25/25/3 26/26/3 27/27/3 
f 28/28/3 29/29/3 30/30/3 31/31/3 
f 31/31/3 11/11/3 12/12/3 32/32/3 
f 33/33/3 34/34/3 35/35/3 32/32/3 
f 32/32/3 35/35/3 26/26/3 31/31/3 
f 28/28/3 31/31/3 26/26/3 25/25/3 
s 64
f 36/36/4 37/37/4 38/38/4 
f 36/36/4 39/39/4 37/37/4 
f 40/40/4 39/39/4 36/36/4 
f 25/25/4 27/27/4 39/39/4 41/41/4 
f 41/41/4 39/39/4 40/40/4 42/42/4 
f 43/43/4 41/41/4 42/42/4 44/44/4 
f 22/22/4 45/45/4 23/23/4 
f 42/42/4 45/46/4 22/47/4 
f 42/42/4 40/40/4 45/46/4 
# 17 polygons - 11 triangles

